<?xml version="1.0" encoding="utf-8"?>
<!-- Svg Vector Icons : http://www.onlinewebfonts.com/icon -->
<!DOCTYPE svg PUBLIC "-//W3C//DTD SVG 1.1//EN" "http://www.w3.org/Graphics/SVG/1.1/DTD/svg11.dtd">
<svg version="1.1" xmlns="http://www.w3.org/2000/svg" xmlns:xlink="http://www.w3.org/1999/xlink" x="0px" y="0px" viewBox="0 0 1000 1000" enable-background="new 0 0 1000 1000" xml:space="preserve">
<metadata> Svg Vector Icons : http://www.onlinewebfonts.com/icon </metadata>
<g style="fill:white;"><g transform="translate(0.000000,511.000000) scale(0.100000,-0.100000)"><path d="M3870.8,4979.8c-126.4-37.5-278.6-177.8-331.9-306.2c-39.5-90.9-45.4-138.3-47.4-460.3l-4-357.6l-169.9-5.9l-171.9-5.9l-7.9,152.1c-5.9,136.3-11.8,156.1-61.2,197.6c-55.3,47.4-59.3,47.4-525.5,47.4h-470.2l-51.4-51.4c-45.4-43.4-53.3-71.1-57.3-191.6l-5.9-142.3l-258.8-9.9c-233.1-9.9-264.7-13.8-329.9-59.3c-86.9-59.3-160-162-189.7-268.7c-15.8-53.3-21.7-691.5-21.7-2044.9c0-1671.4,4-1981.6,29.6-2064.6c31.6-108.7,142.3-235.1,241-276.6c94.8-41.5,7029.6-41.5,7124.4,0c92.9,37.5,223.3,193.6,249,298.3c35.6,138.3,29.6,4006.7-5.9,4105.5c-39.5,106.7-106.7,197.6-185.7,252.9c-63.2,43.5-96.8,49.4-328,57.3l-258.8,9.9l-5.9,142.3c-4,120.5-11.9,148.2-57.3,191.6l-51.4,51.4h-470.2c-466.3,0-470.2,0-525.6-47.4c-49.4-41.5-55.3-61.2-61.2-197.6l-7.9-150.1h-164c-140.3,0-166,5.9-175.8,35.6c-5.9,17.8-9.9,181.8-9.9,363.5c0,292.4-3.9,339.8-41.5,424.8c-57.3,132.4-183.7,254.9-312.2,302.3c-98.8,37.5-152.1,39.5-1145.9,37.5C4159.2,5009.5,3943.9,5003.6,3870.8,4979.8z M6071.7,4851.4c92.9-25.7,201.5-118.5,252.9-217.3c33.6-67.2,37.5-118.5,37.5-432.7v-355.6H4998.9H3635.7v351.7c0,387.2,15.8,454.4,134.3,563.1c116.6,110.6,124.5,110.6,1219,112.6C5633.1,4873.2,6024.3,4865.3,6071.7,4851.4z M2993.6,3974.2v-118.5l-438.6-5.9l-440.6-4v114.6c0,63.2,5.9,122.5,13.8,130.4c7.9,5.9,205.5,9.9,438.6,7.9l426.8-5.9V3974.2z M7879.5,3968.3l5.9-122.5l-440.6,4l-440.6,5.9l-5.9,96.8c-9.9,160-37.5,152.1,444.5,146.2l430.7-5.9L7879.5,3968.3z M2489.8,1475V-759.6l-505.8,5.9l-505.8,5.9l-65.2,73.1c-35.6,39.5-75.1,104.7-86.9,148.2c-29.6,102.7-29.6,3898.1-2,4000.8c23.7,84.9,104.7,189.7,166,213.4c23.7,9.9,256.8,17.8,521.6,17.8l478.1,2V1475z M7369.8,1475V-757.6H4998.9H2628.1V1475v2232.5h2370.8h2370.8V1475z M8584.8,3624.5c35.6-39.5,75.1-104.7,86.9-148.2c29.6-104.7,29.6-3898.1,0-4002.8c-11.9-43.5-51.4-108.7-86.9-148.2l-65.2-73.1l-505.8-5.9l-505.8-5.9V1475v2234.5l505.8-5.9l505.8-5.9L8584.8,3624.5z"/><path d="M4919.9,3008.1v-185.7l-85-11.9c-124.5-19.8-306.2-110.6-420.8-215.3c-274.6-249-326-652-114.6-900.9c148.2-173.9,377.4-276.6,699.4-318.1c371.4-45.4,563.1-110.6,675.7-231.2c177.8-185.7,146.2-493.9-71.1-693.5c-331.9-306.2-875.2-272.7-1296.1,77l-122.5,100.8l-47.4-45.5c-45.4-43.4-45.4-45.4-11.9-83c134.4-152.1,466.3-335.9,673.7-375.4l118.5-21.7l5.9-169.9l5.9-167.9h69.2h69.1l5.9,173.8l5.9,171.9h75.1c187.7,0,509.7,156.1,618.4,302.3c118.5,154.1,144.2,229.2,144.2,428.7c0,169.9-5.9,197.6-57.3,292.4c-118.5,213.4-310.2,302.3-819.9,379.3c-195.6,29.6-302.3,55.3-401.1,102.7c-308.2,140.3-412.9,403-272.6,683.6c213.4,424.8,802.1,515.7,1244.7,191.7l92.9-67.2l45.4,47.4c23.7,25.7,37.5,55.3,31.6,67.2c-25.7,39.5-252.9,177.8-361.6,219.3c-61.2,23.7-162,47.4-223.3,55.3l-108.7,13.8l-5.9,183.7l-5.9,181.8h-77.1h-79V3008.1z"/><path d="M8025.7-1308.8c-169.9-57.3-292.4-158.1-624.3-509.7c-592.7-626.3-760.6-790.3-821.9-804.1c-39.5-7.9-191.7,29.6-488,118.5c-237.1,73.1-438.6,136.3-446.5,144.2c-7.9,9.9,61.2,25.7,154.1,39.5c543.3,75.1,918.7,250.9,981.9,458.4c59.3,199.6-122.5,397.1-395.1,424.8c-138.3,13.8-1730.7,67.2-1987.6,67.2c-175.8,0-237.1-7.9-306.2-39.5c-47.4-21.7-306.2-203.5-576.9-405c-270.7-201.5-505.8-371.4-519.6-377.4c-15.8-5.9-33.6,5.9-41.5,27.7c-19.8,67.2-88.9,142.2-169.9,181.8c-71.1,37.5-116.6,39.5-699.4,39.5c-677.7,0-703.4-4-804.1-110.7C1166-2176.1,1166-2184.1,1166-3363.6c0-691.5,7.9-1106.4,21.7-1153.8c25.7-92.9,124.5-209.4,209.4-243c92.9-39.5,1284.2-39.5,1375.1,0c96.8,41.5,171.9,132.4,209.4,260.8c25.7,90.9,43.5,116.6,81,128.4c27.7,5.9,280.6,75.1,563.1,152.1l513.7,140.3l1304,130.4c717.2,73.1,1335.6,140.3,1375.1,150.1c39.5,9.9,106.7,41.5,152.1,71.1c75.1,53.3,1622.1,1898.7,1651.7,1971.8c27.6,75.1,11.8,221.3-33.6,288.4C8472.2-1293,8250.9-1231.8,8025.7-1308.8z M8333.9-1439.2c114.6-49.4,162-104.7,162-189.7c0-67.2-59.3-144.2-733-958.2c-401.1-488-768.6-924.6-816-970.1c-49.4-45.4-118.5-90.9-162-102.7c-41.5-11.8-659.9-79-1371.1-150.1c-817.9-83-1351.4-146.2-1452.1-169.9c-86.9-21.7-331.9-88.9-545.3-148.2c-213.4-59.3-393.2-106.7-401.1-106.7c-5.9,0-11.9,420.8-9.9,934.5v932.5l533.4,395.1c294.4,217.3,567,412.9,606.5,432.7c71.1,37.5,90.9,37.5,1149.9,3.9c592.7-19.8,1110.4-43.5,1151.8-53.3c108.7-27.7,197.6-114.6,197.6-193.6c0-162-300.3-302.3-855.5-397.1c-215.4-37.5-582.8-140.3-616.4-173.9c-7.9-7.9,288.5-106.7,659.9-219.3c731-221.3,770.5-227.2,900.9-134.3c33.6,23.7,290.4,284.5,569,576.9c278.6,294.4,543.3,559.1,586.8,592.7c85,61.2,250.9,126.4,326,128.4C8239.1-1409.6,8292.4-1423.4,8333.9-1439.2z M2774.3-2138.6c27.7-27.6,59.3-81,71.1-118.5c25.7-94.8,25.7-2121.9,0-2216.7c-11.9-37.5-43.5-90.9-71.1-118.5l-51.4-47.4h-642.1h-642.1l-55.3,63.2c-35.6,39.5-61.3,94.8-69.2,148.2c-5.9,47.4-9.9,557.2-5.9,1136c5.9,1031.3,5.9,1051.1,47.4,1106.4c77.1,104.7,86.9,104.7,752.7,100.8l614.4-5.9L2774.3-2138.6z"/><path d="M1986-3482.1c-217.3-55.3-345.8-223.3-345.8-452.4c0-94.8,11.9-132.4,65.2-221.3c124.5-207.5,371.4-276.6,588.8-162c314.1,164,312.2,634.2,0,792.3C2207.3-3480.1,2067-3460.4,1986-3482.1z M2252.7-3665.8c136.3-92.9,179.8-284.5,94.8-410.9c-75.1-108.7-144.2-148.2-262.8-148.2c-306.2,0-424.8,405-164,563.1C2013.6-3606.6,2167.7-3608.5,2252.7-3665.8z"/> </g></g>
</svg>