<?xml version="1.0" encoding="utf-8"?>
<!-- Svg Vector Icons : http://www.onlinewebfonts.com/icon -->
<!DOCTYPE svg PUBLIC "-//W3C//DTD SVG 1.1//EN" "http://www.w3.org/Graphics/SVG/1.1/DTD/svg11.dtd">
<svg version="1.1" xmlns="http://www.w3.org/2000/svg" xmlns:xlink="http://www.w3.org/1999/xlink" x="0px" y="0px" viewBox="0 0 1000 1000" enable-background="new 0 0 1000 1000" xml:space="preserve">
<metadata> Svg Vector Icons : http://www.onlinewebfonts.com/icon </metadata>
<g style="fill:white;"><g transform="translate(0.000000,511.000000) scale(0.100000,-0.100000)"><path d="M3576.5,4173.9c-134.6-35.6-215.8-85.1-308.9-188.1c-150.5-168.3-158.4-200-164.3-793.9l-5.9-530.6h-277.2H2545v168.3c0,261.3,39.6,247.5-651.3,247.5c-679.1,0-635.5,17.8-635.5-249.5v-162.3l-360.3-7.9c-348.4-5.9-366.3-7.9-463.3-59.4c-118.8-63.3-233.6-184.1-293-310.8L100,2196V-664.8v-2860.8l55.4-112.9c63.4-128.7,176.2-239.6,308.9-300.9l91.1-41.6H5000h4444.6l91.1,41.6c130.7,61.4,239.6,166.3,306.9,299l57.4,114.8v2860.8V2196l-41.6,91.1c-59.4,126.7-174.2,247.5-293,310.8c-97,51.5-114.8,53.5-461.3,59.4l-362.3,7.9v162.3c0,267.3,43.6,249.5-635.5,249.5c-691,0-651.4,13.9-651.4-247.5v-168.3h-275.2h-277.2l-5.9,530.6c-5.9,493-7.9,534.6-49.5,621.7c-59.4,130.7-190.1,263.3-320.7,326.7l-110.9,55.4l-1366.1,4C3897.2,4203.6,3667.6,4199.6,3576.5,4173.9z M5995.8,3484.9c112.9-41.6,203.9-120.8,253.4-223.7c39.6-81.2,47.5-130.7,53.5-346.5l7.9-253.4H5000H3689.4l7.9,253.4c5.9,215.8,13.9,265.3,53.5,346.5c49.5,102.9,140.6,182.1,253.4,223.7C4113.1,3522.5,5886.9,3522.5,5995.8,3484.9z M1753.1-664.8v-3029.1H1181c-558.3,0-572.2,0-635.5,45.5c-35.6,23.8-85.1,69.3-106.9,99l-41.6,55.4L391-698.4c-2,1538.3,0,2815.3,5.9,2839c13.9,55.4,122.8,182.1,176.2,203.9c23.8,9.9,297,17.8,611.8,17.8l568.2,2V-664.8z M9504,2285.1c37.6-37.6,79.2-99,91.1-138.6c11.9-45.5,17.8-1003.8,13.9-2854.9l-5.9-2785.6l-41.6-55.4c-21.8-29.7-71.3-75.2-106.9-99c-63.3-45.5-77.2-45.5-635.5-45.5h-572.2v3029.1v3031.1l592-5.9l593.9-5.9L9504,2285.1z M5401.9,1720.9C6568,1517,7415.4,513.2,7415.4-664.8c0-1330.4-1084.9-2415.4-2415.4-2415.4c-1037.4,0-1964,669.2-2296.6,1659.1C2545-947.9,2545-381.7,2703.4,91.5c283.1,843.4,1005.7,1471,1878.8,1627.4C4786.2,1756.5,5194,1756.5,5401.9,1720.9z"/><path d="M4861.4,982.4V770.6L4730.7,733c-243.5-69.3-475.2-263.3-578.1-483.1c-47.5-99-53.5-138.6-53.5-310.8c0-166.3,7.9-213.8,45.5-289.1c134.6-273.2,396-423.7,841.4-485c500.9-69.3,669.2-154.4,728.6-370.2c59.4-221.7-83.1-453.4-350.4-570.2c-148.5-65.3-419.7-75.2-594-19.8c-168.3,49.5-304.9,128.7-433.6,245.5l-99,89.1l-106.9-99l-106.9-97l57.4-61.4c146.5-154.4,411.8-306.9,647.4-368.2l122.7-33.7l5.9-203.9l5.9-201.9H5000h136.6l5.9,201.9l5.9,201.9l132.6,23.8c289,53.5,544.5,237.6,661.3,473.2c51.5,108.9,57.4,136.6,57.4,326.7c0,186.1-5.9,217.8-53.5,308.8c-130.7,247.5-338.5,352.4-867.1,433.6c-249.5,37.6-328.6,59.4-433.6,112.9c-148.5,75.2-249.5,190.1-269.3,310.8c-33.7,196,118.8,441.5,342.5,550.4c102.9,51.5,132.6,55.4,330.6,55.4c241.5,0,350.4-33.7,518.7-162.4l83.2-63.3l104.9,97l104.9,99l-79.2,69.3c-106.9,93.1-336.6,203.9-477.1,231.6c-65.4,11.9-128.7,23.8-140.6,27.7c-17.8,4-25.7,65.3-25.7,215.8v207.9H5000h-138.6V982.4z"/></g></g>
</svg>