<?xml version="1.0" encoding="utf-8"?>
<!-- Svg Vector Icons : http://www.onlinewebfonts.com/icon -->
<!DOCTYPE svg PUBLIC "-//W3C//DTD SVG 1.1//EN" "http://www.w3.org/Graphics/SVG/1.1/DTD/svg11.dtd">
<svg version="1.1" xmlns="http://www.w3.org/2000/svg" xmlns:xlink="http://www.w3.org/1999/xlink" x="0px" y="0px" viewBox="0 0 1000 1000" enable-background="new 0 0 1000 1000" xml:space="preserve">
<metadata> Svg Vector Icons : http://www.onlinewebfonts.com/icon </metadata>
<g style="fill:white;"><g transform="translate(0.000000,511.000000) scale(0.100000,-0.100000)"><path d="M3870.8,4979.8c-126.4-37.5-278.6-177.8-331.9-306.2c-39.5-90.9-45.4-138.3-47.4-460.3l-4-357.6l-169.9-5.9l-171.9-5.9l-7.9,152.1c-5.9,136.3-11.8,156.1-61.2,197.6c-55.3,47.4-59.3,47.4-525.5,47.4h-470.2l-51.4-51.4c-45.4-43.4-53.3-71.1-57.3-191.6l-5.9-142.3l-258.8-9.9c-233.1-9.9-264.7-13.8-329.9-59.3c-86.9-59.3-160-162-189.7-268.7c-15.8-53.3-21.7-691.5-21.7-2044.9c0-1671.4,4-1981.6,29.6-2064.6c31.6-108.7,142.3-235.1,241-276.6c94.8-41.5,7029.6-41.5,7124.4,0c92.9,37.5,223.3,193.6,249,298.3c35.6,138.3,29.6,4006.7-5.9,4105.5c-39.5,106.7-106.7,197.6-185.7,252.9c-63.2,43.5-96.8,49.4-328,57.3l-258.8,9.9l-5.9,142.3c-4,120.5-11.9,148.2-57.3,191.6l-51.4,51.4h-470.2c-466.3,0-470.2,0-525.6-47.4c-49.4-41.5-55.3-61.2-61.2-197.6l-7.9-150.1h-164c-140.3,0-166,5.9-175.8,35.6c-5.9,17.8-9.9,181.8-9.9,363.5c0,292.4-3.9,339.8-41.5,424.8c-57.3,132.4-183.7,254.9-312.2,302.3c-98.8,37.5-152.1,39.5-1145.9,37.5C4159.2,5009.5,3943.9,5003.6,3870.8,4979.8z M6071.7,4851.4c92.9-25.7,201.5-118.5,252.9-217.3c33.6-67.2,37.5-118.5,37.5-432.7v-355.6H4998.9H3635.7v351.7c0,387.2,15.8,454.4,134.3,563.1c116.6,110.6,124.5,110.6,1219,112.6C5633.1,4873.2,6024.3,4865.3,6071.7,4851.4z M2993.6,3974.2v-118.5l-438.6-5.9l-440.6-4v114.6c0,63.2,5.9,122.5,13.8,130.4c7.9,5.9,205.5,9.9,438.6,7.9l426.8-5.9V3974.2z M7879.5,3968.3l5.9-122.5l-440.6,4l-440.6,5.9l-5.9,96.8c-9.9,160-37.5,152.1,444.5,146.2l430.7-5.9L7879.5,3968.3z M2489.8,1475V-759.6l-505.8,5.9l-505.8,5.9l-65.2,73.1c-35.6,39.5-75.1,104.7-86.9,148.2c-29.6,102.7-29.6,3898.1-2,4000.8c23.7,84.9,104.7,189.7,166,213.4c23.7,9.9,256.8,17.8,521.6,17.8l478.1,2V1475z M7369.8,1475V-757.6H4998.9H2628.1V1475v2232.5h2370.8h2370.8V1475z M8584.8,3624.5c35.6-39.5,75.1-104.7,86.9-148.2c29.6-104.7,29.6-3898.1,0-4002.8c-11.9-43.5-51.4-108.7-86.9-148.2l-65.2-73.1l-505.8-5.9l-505.8-5.9V1475v2234.5l505.8-5.9l505.8-5.9L8584.8,3624.5z"/><path d="M4919.9,3008.1v-185.7l-85-11.9c-124.5-19.8-306.2-110.6-420.8-215.3c-274.6-249-326-652-114.6-900.9c148.2-173.9,377.4-276.6,699.4-318.1c371.4-45.4,563.1-110.6,675.7-231.2c177.8-185.7,146.2-493.9-71.1-693.5c-331.9-306.2-875.2-272.7-1296.1,77l-122.5,100.8l-47.4-45.5c-45.4-43.4-45.4-45.4-11.9-83c134.4-152.1,466.3-335.9,673.7-375.4l118.5-21.7l5.9-169.9l5.9-167.9h69.2h69.1l5.9,173.8l5.9,171.9h75.1c187.7,0,509.7,156.1,618.4,302.3c118.5,154.1,144.2,229.2,144.2,428.7c0,169.9-5.9,197.6-57.3,292.4c-118.5,213.4-310.2,302.3-819.9,379.3c-195.6,29.6-302.3,55.3-401.1,102.7c-308.2,140.3-412.9,403-272.6,683.6c213.4,424.8,802.1,515.7,1244.7,191.7l92.9-67.2l45.4,47.4c23.7,25.7,37.5,55.3,31.6,67.2c-25.7,39.5-252.9,177.8-361.6,219.3c-61.2,23.7-162,47.4-223.3,55.3l-108.7,13.8l-5.9,183.7l-5.9,181.8h-77.1h-79V3008.1z"/></g></g>
</svg>