<?xml version="1.0" encoding="utf-8"?>
<!-- Generator: Adobe Illustrator 19.0.0, SVG Export Plug-In . SVG Version: 6.00 Build 0)  -->
<svg version="1.1" id="Layer_1" xmlns="http://www.w3.org/2000/svg" xmlns:xlink="http://www.w3.org/1999/xlink" x="0px" y="0px"
	 viewBox="0 0 96 96" style="enable-background:new 0 0 96 96;" xml:space="preserve">
<style type="text/css">
	.st0{fill:#fff;}
</style>
<g id="XMLID_1_">
	<path id="XMLID_6_" class="st0" d="M74,26.9v-3.3h-6.5v3.3H61v-6.5c0-1.8-1.5-3.3-3.3-3.3H38.3c-1.8,0-3.3,1.5-3.3,3.3v6.5h-6.5
		v-3.3H22v3.3c-3.6,0-6.5,2.9-6.5,6.5v39c0,3.6,2.9,6.5,6.5,6.5h52c3.6,0,6.5-2.9,6.5-6.5v-39C80.5,29.8,77.6,26.9,74,26.9z
		 M41.5,23.6h13v3.3h-13V23.6z M57.8,46.4H46.4c-0.9,0-1.6,0.7-1.6,1.6c0,0.9,0.7,1.6,1.6,1.6h3.3c4.5,0,8.1,3.6,8.1,8.1
		c0,3.9-2.8,7.2-6.5,8v3.4h-6.5v-3.3h-6.5v-6.5h11.4c0.9,0,1.6-0.7,1.6-1.6c0-0.9-0.7-1.6-1.6-1.6h-3.3c-4.5,0-8.1-3.6-8.1-8.1
		c0-3.9,2.8-7.2,6.5-8v-3.4h6.5v3.3h6.5V46.4z"/>
</g>
</svg>
