<?xml version="1.0" ?><!DOCTYPE svg  PUBLIC '-//W3C//DTD SVG 1.1//EN'  'http://www.w3.org/Graphics/SVG/1.1/DTD/svg11.dtd'><svg height="512px" style="enable-background:new 0 0 512 512; fill:white;" version="1.1" viewBox="0 0 512 512" width="512px" xml:space="preserve" xmlns="http://www.w3.org/2000/svg" xmlns:xlink="http://www.w3.org/1999/xlink"><style type="text/css">
<![CDATA[
	.st0{display:inline;}
	.st1{fill:none;stroke:#000000;stroke-width:16;stroke-linecap:round;stroke-linejoin:round;stroke-miterlimit:10;}
	.st2{display:none;}
]]>
</style><g class="st2" id="layer"><g class="st0"><polyline class="st1" points="469,469 43,469 43,43   "/><g><polyline class="st1" points="413.695,186.202 423.242,120.795 357.834,130.341    "/><polyline class="st1" points="88.783,391.614 232.87,247.526 251.255,292.781 423.242,120.795    "/></g></g></g><g id="layer_copy"><path d="M469,477H43c-4.418,0-8-3.582-8-8V43c0-4.418,3.582-8,8-8s8,3.582,8,8v418h418c4.418,0,8,3.582,8,8S473.418,477,469,477z"/><path d="M431.236,120.921c0.004-0.238-0.005-0.476-0.021-0.713c-0.004-0.049-0.003-0.098-0.008-0.146   c-0.026-0.289-0.069-0.575-0.127-0.86c-0.012-0.056-0.028-0.111-0.041-0.167c-0.051-0.227-0.11-0.452-0.181-0.674   c-0.024-0.076-0.053-0.151-0.08-0.227c-0.07-0.2-0.148-0.398-0.235-0.593c-0.034-0.078-0.069-0.154-0.106-0.23   c-0.093-0.19-0.193-0.376-0.302-0.56c-0.042-0.073-0.083-0.146-0.128-0.217c-0.117-0.186-0.245-0.366-0.38-0.543   c-0.045-0.061-0.087-0.124-0.135-0.184c-0.184-0.23-0.38-0.454-0.593-0.667s-0.437-0.409-0.667-0.593   c-0.061-0.048-0.125-0.091-0.187-0.137c-0.177-0.133-0.355-0.26-0.54-0.376c-0.072-0.046-0.146-0.087-0.221-0.131   c-0.183-0.107-0.367-0.208-0.556-0.298c-0.077-0.038-0.154-0.073-0.232-0.108c-0.195-0.087-0.393-0.165-0.592-0.235   c-0.076-0.027-0.15-0.055-0.228-0.08c-0.223-0.071-0.449-0.131-0.677-0.182c-0.055-0.013-0.108-0.029-0.163-0.04   c-0.286-0.058-0.573-0.102-0.863-0.128c-0.044-0.004-0.088-0.003-0.132-0.006c-0.242-0.018-0.484-0.026-0.727-0.022   c-0.093,0.001-0.186,0.008-0.279,0.013c-0.199,0.01-0.398,0.026-0.597,0.051c-0.051,0.006-0.103,0.006-0.153,0.013l-65.408,9.546   c-4.372,0.638-7.399,4.699-6.761,9.071c0.639,4.372,4.696,7.399,9.071,6.761l41.539-6.063L254.127,278.596l-13.845-34.081   c-1.009-2.484-3.196-4.298-5.824-4.83s-5.348,0.288-7.244,2.184L83.126,385.957c-3.125,3.125-3.125,8.189,0,11.314   c1.562,1.562,3.609,2.343,5.657,2.343s4.095-0.781,5.657-2.343l135.559-135.56l13.845,34.08c1.009,2.484,3.196,4.298,5.824,4.83   c2.628,0.535,5.348-0.288,7.244-2.184l154.93-154.929l-6.063,41.538c-0.639,4.372,2.389,8.433,6.761,9.071   c0.392,0.057,0.781,0.085,1.165,0.085c3.907,0,7.325-2.865,7.906-6.846l9.547-65.407c0.007-0.049,0.007-0.097,0.013-0.146   c0.025-0.201,0.042-0.402,0.052-0.604C431.228,121.107,431.235,121.014,431.236,120.921z"/></g></svg>