<?xml version="1.0" encoding="iso-8859-1"?>
<!-- Generator: Adobe Illustrator 16.0.0, SVG Export Plug-In . SVG Version: 6.00 Build 0)  -->
<!DOCTYPE svg PUBLIC "-//W3C//DTD SVG 1.1//EN" "http://www.w3.org/Graphics/SVG/1.1/DTD/svg11.dtd">
<svg version="1.1" id="Capa_1" xmlns="http://www.w3.org/2000/svg" xmlns:xlink="http://www.w3.org/1999/xlink" x="0px" y="0px"
	 width="455.6px" height="455.6px" viewBox="0 0 455.6 455.6" style="enable-background:new 0 0 455.6 455.6; fill:white;" xml:space="preserve"
	>
<g>
	<path d="M401.2,94.006h-88.509V80.032c0-22.501-18.299-40.8-40.801-40.8h-88.399c-22.501,0-40.8,18.299-40.8,40.8v13.974H54.4
		c-30.042,0-54.4,24.357-54.4,54.4v213.561c0,30.043,24.357,54.4,54.4,54.4h346.8c30.042,0,54.399-24.357,54.399-54.4V148.406
		C455.6,118.357,431.242,94.006,401.2,94.006z M169.891,80.032c0-7.5,6.1-13.6,13.6-13.6h88.399c7.501,0,13.601,6.1,13.601,13.6
		v13.974h-115.6V80.032z M278.521,218.861c-7.168,2.38-14.831-1.462-17.211-8.582c-2.911-8.69-13.431-18.843-33.511-18.843
		c-16.49,0-26.248,11.03-27.377,21.923c-1.407,13.607,9.867,24.255,30.172,28.505c41.644,8.725,53.849,36.666,51.652,57.936
		c-2.284,22.025-18.958,39.488-40.841,44.689v15.104c0,7.508-6.093,13.6-13.6,13.6c-7.507,0-13.6-6.092-13.6-13.6v-14.633
		c-25.969-4.475-40.732-21.414-45.703-36.252c-2.387-7.119,1.455-14.83,8.582-17.211c7.113-2.393,14.831,1.463,17.211,8.582
		c2.91,8.691,13.437,18.844,33.51,18.844c16.49,0,26.248-11.031,27.377-21.924c1.407-13.607-9.867-24.256-30.172-28.506
		c-41.643-8.725-53.849-36.666-51.653-57.936c2.285-22.025,18.958-39.487,40.841-44.689v-15.103c0-7.507,6.093-13.6,13.6-13.6
		c7.507,0,13.6,6.093,13.6,13.6v14.633c25.977,4.475,40.739,21.413,45.703,36.244C289.482,208.777,285.634,216.474,278.521,218.861z
		"/>
</g>
<g>
</g>
<g>
</g>
<g>
</g>
<g>
</g>
<g>
</g>
<g>
</g>
<g>
</g>
<g>
</g>
<g>
</g>
<g>
</g>
<g>
</g>
<g>
</g>
<g>
</g>
<g>
</g>
<g>
</g>
</svg>
