<?xml version="1.0" encoding="iso-8859-1"?>
<!-- Generator: Adobe Illustrator 16.0.0, SVG Export Plug-In . SVG Version: 6.00 Build 0)  -->
<!DOCTYPE svg PUBLIC "-//W3C//DTD SVG 1.1//EN" "http://www.w3.org/Graphics/SVG/1.1/DTD/svg11.dtd">
<svg version="1.1" id="Capa_1" xmlns="http://www.w3.org/2000/svg" xmlns:xlink="http://www.w3.org/1999/xlink" x="0px" y="0px"
	 width="30.25px" height="30.25px" viewBox="0 0 30.25 30.25" style="fill:white; enable-background:new 0 0 30.25 30.25;" xml:space="preserve"
	>
<g>
	<path d="M16.589,18.205c0.17,0.113,0.255,0.352,0.255,0.713c0,0.658-0.384,0.988-1.15,0.988h-0.171v-1.873
		C16.062,18.033,16.417,18.09,16.589,18.205z M13.48,16.062c0,0.586,0.352,0.879,1.057,0.879c0.007,0,0.065,0.002,0.177,0.011
		v-1.735l-0.172,0.006C13.833,15.22,13.48,15.5,13.48,16.062z M21.625,17.367c0,3.59-2.911,6.5-6.5,6.5s-6.5-2.91-6.5-6.5
		c0-3.592,2.911-6.5,6.5-6.5S21.625,13.775,21.625,17.367z M18.053,18.896c0-0.693-0.154-1.172-0.467-1.433
		c-0.312-0.262-0.911-0.416-1.8-0.465l-0.266-0.013v-1.77h0.187c0.656,0,0.982,0.262,0.982,0.788l0.004,0.127h1.156v-0.164
		c0-0.692-0.164-1.169-0.494-1.424c-0.33-0.256-0.94-0.383-1.836-0.383v-0.688h-0.807v0.688c-0.937,0-1.579,0.133-1.924,0.399
		c-0.347,0.268-0.52,0.764-0.52,1.485c0,0.748,0.173,1.259,0.517,1.531c0.344,0.271,0.986,0.405,1.927,0.405V19.9l-0.177-0.004
		c-0.482,0-0.793-0.062-0.932-0.188s-0.209-0.408-0.209-0.844v-0.123h-1.195l-0.005,0.241c0,0.713,0.171,1.216,0.515,1.504
		c0.341,0.287,0.935,0.433,1.777,0.433l0.226,0.006v0.793h0.807v-0.793l0.247-0.006c0.845,0,1.438-0.149,1.777-0.451
		C17.883,20.17,18.053,19.646,18.053,18.896z M30.25,7.272v19.595H0V7.272h8.686V3.383h12.878v3.889H30.25z M10.686,7.272h8.878
		V5.383h-8.878V7.272z M28.25,9.272H2v15.595h26.25V9.272z"/>
</g>
<g>
</g>
<g>
</g>
<g>
</g>
<g>
</g>
<g>
</g>
<g>
</g>
<g>
</g>
<g>
</g>
<g>
</g>
<g>
</g>
<g>
</g>
<g>
</g>
<g>
</g>
<g>
</g>
<g>
</g>
</svg>
