<?xml version="1.0" encoding="utf-8"?>
<!-- Svg Vector Icons : http://www.onlinewebfonts.com/icon -->
<!DOCTYPE svg PUBLIC "-//W3C//DTD SVG 1.1//EN" "http://www.w3.org/Graphics/SVG/1.1/DTD/svg11.dtd">
<svg version="1.1" xmlns="http://www.w3.org/2000/svg" xmlns:xlink="http://www.w3.org/1999/xlink" x="0px" y="0px" viewBox="0 0 1000 1000" enable-background="new 0 0 1000 1000" xml:space="preserve">
<metadata> Svg Vector Icons : http://www.onlinewebfonts.com/icon </metadata>
<g><g style="fill:white;" transform="translate(0.000000,511.000000) scale(0.100000,-0.100000)"><path d="M1590,4742.8c-415.5-109.1-687.4-536.1-614.6-965c13.4-76.6,46-187.6,74.7-245.1c65.1-135.9,252.7-323.6,388.7-388.7c335.1-162.7,735.2-90,982.2,178.1c130.2,139.8,201,283.4,229.8,457.6c42.1,271.9-36.4,520.8-225.9,725.7C2206.5,4740.9,1909.8,4825.2,1590,4742.8z"/><path d="M7944.7,4740.9c-155.1-49.8-258.5-116.8-373.4-235.5c-111-120.6-166.6-218.3-206.8-373.4c-80.4-306.3,13.4-622.3,245.1-842.5c118.7-111,216.4-166.6,371.5-206.8c528.4-137.9,1058.8,279.5,1058.8,832.9C9039.9,4482.4,8473.2,4909.4,7944.7,4740.9z"/><path d="M2248.6,2667.3l-158.9-158.9L1950,2648.2l-137.9,137.9l-139.8-137.9l-137.9-139.8l-151.3,151.3L1232,2809l-292.9-7.7c-270-5.7-304.4-11.5-404-57.4c-153.2-70.8-291-206.8-365.7-358l-61.3-126.4l-5.7-1472.4C96.6-888.2,88.9-805.8,249.7-966.7c113-113,225.9-153.2,427-153.2h149.3V-2732c0-1499.2,1.9-1619.8,34.5-1681.1c65.1-132.1,72.8-134,951.6-134c708.4,0,790.8,3.8,852,34.5c99.6,49.8,134,134,134,337v168.5L2629.7-3831c-490.2,513.1-788.8,1091.3-917.1,1778.7c-45.9,245.1-45.9,853.9,0,1099c128.3,687.3,427,1265.6,917.1,1778.7l168.5,176.1v421.2V1846l1288.6,5.7c1284.7,5.7,1286.7,5.7,1365.2,47.9c103.4,55.5,224,193.4,252.7,289.1c51.7,174.2,5.8,348.5-130.2,482.5c-158.9,160.8-78.5,153.2-1721.3,153.2H2405.6L2248.6,2667.3z"/><path d="M5905.6,2789.9c17.2-19.1,55.5-84.2,84.3-147.4c47.9-101.5,53.6-135.9,53.6-306.3c0-170.4-5.7-204.9-53.6-306.3c-28.7-63.2-67-128.3-84.3-147.4c-28.7-32.5-1.9-34.5,631.8-34.5h664.4v-423.1v-423.1l168.5-176.1c664.4-695,995.6-1550.9,955.4-2462.3c-38.3-834.8-356.1-1566.2-955.4-2194.2l-168.5-176.2v-178.1c0-147.4,7.7-191.5,38.3-243.2c70.8-116.8,88.1-118.7,951.6-118.7c873.1,0,875,0,947.8,135.9c32.5,61.3,34.5,151.3,34.5,1677.2v1614.1h149.3c201,0,314,40.2,427,153.2c160.8,160.8,153.2,78.5,147.4,1753.8l-5.7,1472.4l-61.3,126.4c-76.6,153.2-212.5,287.2-365.7,358c-99.6,46-134,51.7-404,57.4L8768,2809l-151.3-149.4l-151.3-151.3l-139.8,139.8l-137.9,137.9l-139.8-137.9l-137.9-139.8l-158.9,158.9l-157,157h-859.7C5911.4,2824.4,5876.9,2822.4,5905.6,2789.9z"/><path d="M4640,1541.5c-474.8-61.3-965-247-1372.8-522.7c-227.8-155.1-633.8-561-788.8-788.8c-231.7-344.6-396.3-735.2-486.3-1158.4c-57.4-271.9-63.2-834.8-9.6-1110.5c80.4-413.6,258.5-846.3,495.9-1196.7c155.1-227.9,561-633.7,788.8-788.8c342.7-231.7,735.2-396.3,1158.4-486.3c291-63.2,857.8-63.2,1148.8,0c423.1,90,815.6,254.6,1158.4,486.3c227.9,155.1,633.7,561,788.8,788.8c231.7,342.7,396.3,735.2,486.3,1158.4c63.2,291,63.2,857.8,0,1148.8c-90,423.1-254.6,815.6-486.3,1158.4c-155.1,227.8-561,633.8-788.8,788.8c-344.6,231.7-756.3,405.9-1154.5,486.3C5361.9,1547.3,4852.6,1568.3,4640,1541.5z M5517,949.9c505.5-114.9,875-319.8,1246.4-689.3c377.2-377.2,585.9-762,698.8-1288.6c47.9-222.1,47.9-727.6,0-949.7c-112.9-526.5-321.7-909.5-698.8-1288.6c-379.1-377.2-762-585.9-1288.6-698.8c-222.1-47.9-727.6-47.9-949.7,0c-526.5,112.9-911.4,321.7-1288.6,698.8c-377.2,377.2-585.9,762-698.8,1284.7c-49.8,227.8-49.8,729.5,0,957.3C2645-526.3,2855.6-128,3198.3,226.2c193.4,199.1,348.5,321.7,566.7,449.9C4014,821.6,4372,942.3,4678.3,986.3C4866,1013.1,5329.3,992,5517,949.9z"/><path d="M4636.2,446.3V230L4462,147.7c-417.4-197.2-679.7-647.2-612.7-1047.3c28.7-181.9,116.8-350.4,254.7-499.7c204.9-218.3,404-327.4,819.5-448c331.2-97.7,555.2-254.6,555.2-388.7c-1.9-86.2-90-204.9-191.5-256.6c-193.4-99.6-427-101.5-706.5-7.7l-158.9,53.6l-36.4-78.5c-19.1-44-86.2-189.5-147.4-327.4c-63.2-135.9-111.1-254.6-107.2-260.4c7.7-15.3,312.1-122.5,425-151.3l80.4-21.1v-180v-181.9H5000h363.8v199.1v199.1l72.8,23c147.4,47.9,342.7,166.6,469.1,285.3c227.9,216.3,348.5,545.7,300.6,829c-26.8,151.3-122.5,358-231.7,492.1c-153.2,191.5-495.9,386.8-831,471c-331.2,84.2-536.1,216.4-559.1,358c-15.3,103.4,74.7,225.9,218.3,296.8c103.4,49.8,126.4,53.6,331.2,51.7c187.6,0,239.3-7.7,350.4-49.8c70.8-26.8,132.1-44,135.9-36.4c3.9,5.8,68.9,149.4,145.5,317.9c76.6,168.5,141.7,312.1,147.4,321.7c17.2,26.8-239.3,118.7-495.9,174.2l-53.6,11.5v181.9v181.9H5000h-363.8V446.3z"/></g></g>
</svg>