<svg height='300px' width='300px'  fill="#000000" xmlns="http://www.w3.org/2000/svg" data-name="Layer 1" viewBox="0 0 100 100" x="0px" y="0px"><title>Artboard 11</title><path d="M95.35,97.44H72.44l4.38-23.89A98.16,98.16,0,0,1,93.17,84.24a6,6,0,0,1,2.17,4.65ZM75.07,66.52a13.76,13.76,0,0,0,1.67-4.61c.66-.05,1.52-1,2.45-4.27,1.23-4.35,0-5.11-1.1-5.06,2.78-12.74-4.38-12.78-4.38-12.78-.6-2.67-4.39-5.44-7.93-4.71S55,35,55,35a3.44,3.44,0,0,0,1.22,2.61c-6.4,3.9-4.93,12.5-4.36,15-1.09,0-2.22.83-1,5.07.93,3.29,1.8,4.21,2.45,4.27a13.77,13.77,0,0,0,1.67,4.61v4.12L64,77.26l-3.41,4.35,2.3,3.69L61.12,97.44h7.76L67.09,85.3l2.3-3.69L66,77.26l9.1-6.62Zm-21.9,7a102.66,102.66,0,0,0-11.43,7,26.16,26.16,0,0,1-3.4-1.41L38.11,79a2,2,0,0,1-.92-1.7V74.63h0v-.88s7.88.24,11.61-3.58c0,0-5.44-1.54-4.46-11.44s-1.22-18.59-9.18-17.86c0,0-3.45-4.15-10.32-1.54-2.36.9-8.68,3.16-8.36,16.88S11.61,70,11.61,70s2.68,3.9,11.78,3.82v3.43a2,2,0,0,1-.92,1.7l-.2.12a58.22,58.22,0,0,1-8.55,3,30,30,0,0,0-5.39,2,6.49,6.49,0,0,0-3.68,5.21v8.12H57.56ZM40.62,35.37V29H37a3.83,3.83,0,0,1-3.83-3.83V6.38A3.83,3.83,0,0,1,37,2.56H63.58a3.83,3.83,0,0,1,3.83,3.83V25.2A3.83,3.83,0,0,1,63.58,29H52.11L41.82,36A.77.77,0,0,1,40.62,35.37Zm5.92-14a7.2,7.2,0,0,0,2,.58,1.64,1.64,0,0,1,.32.07,1.49,1.49,0,0,1,0,.35v.74a.68.68,0,0,0,.71.73h1.11a.65.65,0,0,0,.68-.71c0-.11,0-.23,0-.34s0-.46,0-.69.06-.31.29-.37a3.92,3.92,0,0,0,2-1.31,3.6,3.6,0,0,0,.77-3,3.85,3.85,0,0,0-1.95-2.64,16.38,16.38,0,0,0-1.72-.79L50.62,14a4,4,0,0,1-1-.56.74.74,0,0,1-.31-.66.76.76,0,0,1,.49-.57,1.59,1.59,0,0,1,.57-.11,4.66,4.66,0,0,1,2.32.46c.74.36.89-.18,1-.41s.19-.61.27-.92l.1-.36A.68.68,0,0,0,53.6,10,6.4,6.4,0,0,0,52,9.48c-.5-.08-.5-.08-.5-.58,0-1.05-.08-1.22-1.11-1.22h-.56c-.59,0-.77.2-.78.79,0,.14,0,.27,0,.41V9.1c0,.44,0,.44-.44.6A3.52,3.52,0,0,0,46,13a3.34,3.34,0,0,0,1.89,3.21,10.87,10.87,0,0,0,1.55.72l.69.28a3.17,3.17,0,0,1,.75.44.87.87,0,0,1-.21,1.54,2.47,2.47,0,0,1-1.3.17,6,6,0,0,1-2.09-.62,1,1,0,0,0-.45-.14c-.36,0-.48.37-.54.56-.12.38-.22.76-.33,1.14C45.85,20.9,46,21.13,46.54,21.41Z"></path></svg>